<?xml version="1.0" encoding="utf-8"?>
<!-- Generator: Adobe Illustrator 25.2.1, SVG Export Plug-In . SVG Version: 6.00 Build 0)  -->
<svg version="1.1" id="Camada_1" xmlns="http://www.w3.org/2000/svg" xmlns:xlink="http://www.w3.org/1999/xlink" x="0px" y="0px"
	 viewBox="0 0 1000 1571" style="enable-background:new 0 0 1000 1571;" xml:space="preserve">
<style type="text/css">
	.st0{fill:#FFFFFF;}
</style>
<g>
	<g>
		<g>
			<path class="st0" d="M399.6,978.7l-5-0.4c-2.1-0.3-52.1-7.1-102.1-32.9c-30.7-15.8-55.4-35.6-73.4-58.7c-1.5-1.9-2.9-3.8-4.3-5.7
				c-1.4,1.9-2.8,3.9-4.3,5.7c-18,23.1-42.7,42.9-73.4,58.7C87,971.3,37.1,978,35,978.3l-5,0.4c-16.6,0-30.1-13.5-30.1-30V759.6
				c0-16.5,13.5-30,30-30c83,0,150.6-67.6,150.6-150.6c0-16.5,13.5-30,30-30h8.4c16.5,0,30,13.5,30,30c0,83,67.6,150.6,150.6,150.6
				c16.5,0,30,13.5,30,30v189.1C429.6,965.3,416.1,978.7,399.6,978.7z M399,958.6h0.6c5.5,0,9.9-4.4,9.9-9.9V759.6
				c0-5.5-4.4-9.9-9.9-9.9c-94.1,0-170.7-76.6-170.7-170.7c0-5.5-4.4-9.9-9.9-9.9h-8.4c-5.5,0-9.9,4.4-9.9,9.9
				c0,94.1-76.6,170.7-170.7,170.7c-5.5,0-9.9,4.4-9.9,9.9v189.1c0,5.5,4.4,9.9,9.9,9.9l2.4-0.2c1.9-0.3,48.4-6.6,95.5-30.8
				c28.1-14.5,50.6-32.4,66.8-53.2c4.2-5.4,8.1-11.1,11.4-16.9l8.7-15l8.7,15c3.4,5.8,7.2,11.5,11.4,16.9
				c16.2,20.8,38.7,38.7,66.8,53.2c47,24.2,93.5,30.5,95.5,30.8L399,958.6z"/>
		</g>
		<g>
			<path class="st0" d="M429.7,460.4H238.5C107,460.4,0,353.4,0,221.9V30.7h191.2c131.5,0,238.5,107,238.5,238.5V460.4z M20.1,50.8
				v171.1c0,120.4,98,218.4,218.4,218.4h171.1V269.2c0-120.4-98-218.4-218.4-218.4H20.1z"/>
		</g>
		<g>
			<path class="st0" d="M754.5,978.7c-63.6,0-123.7-24.6-169-69.3c-44.9-44.2-70.4-103.3-71.7-166.2c0-0.6-0.1-1.2-0.1-1.8V572.2
				c-0.2-3.2,0.6-7,2.2-10.3c6.4-13.3,19.8-13,25.6-12.8c92,2.1,173.2,54.7,213.1,136c39.6-80.7,120.4-133.3,211.8-135.9
				c1.1,0,2.1,0,3.1,0l0.1-0.1l4.3,0.1c12.1,0.3,21.6,10.1,21.6,22.2v170.1c0,0.6,0,1.2-0.1,1.8c-1.4,62.9-26.8,122-71.7,166.2
				C878.1,954.1,818.1,978.7,754.5,978.7z M539.4,569.1c-4.2,0-4.9,0.5-5.4,1.5c-0.2,0.4-0.2,0.8-0.2,1l0.1,170.8
				c1.2,57.8,24.5,112,65.8,152.7c41.5,40.9,96.6,63.5,154.9,63.5s113.3-22.5,154.9-63.5c41.2-40.6,64.6-94.8,65.8-152.6l0-0.8
				l0-170.4c0-1.1-0.9-2.1-2-2.1l-0.1,0c-0.7,0-3.4-0.1-6.2,0c-91.1,2.6-170.8,59.4-202.9,144.7l-9.4,24.9l-9.4-24.9
				C712.8,628.1,632.6,571.3,541,569.2C540.4,569.1,539.9,569.1,539.4,569.1z"/>
		</g>
		<g>
			<path class="st0" d="M754.4,491c-8.5,0-23.8-3.8-31.3-29.2c-11.8-39.4-32.9-76.2-61.1-106.4c-33.5-37.5-76.3-64.7-123.9-78.9
				c-25.4-7.6-29.2-22.9-29.2-31.3c0-8.5,3.8-23.8,29.2-31.4c39.9-11.9,77.1-33.4,107.6-62.1l1.2-1.1c36-33,62.3-75,76.1-121.4
				C730.6,3.8,745.9,0,754.4,0c8.5,0,23.8,3.8,31.3,29.2c14.8,49.5,43.4,93.6,82.9,127.4c29.5,26.3,64.8,46,102.2,57.2l0,0
				c25.4,7.6,29.2,22.9,29.2,31.3c0,8.5-3.8,23.8-29.2,31.3c-47.6,14.2-90.4,41.4-123.7,78.6c-28.4,30.5-49.6,67.4-61.3,106.8
				C778.2,487.2,762.9,491,754.4,491z M754.4,20.1c-6.3,0-10.1,8-12.1,14.8c-14.9,49.9-43.1,95-81.7,130.4l-0.9,0.9
				c-32.9,31-72.9,54.1-115.8,66.9c-6.8,2-14.8,5.7-14.8,12.1c0,6.3,8,10.1,14.8,12.1c51.1,15.3,97.1,44.5,133,84.6
				c30.2,32.3,52.8,71.9,65.5,114.2c2,6.8,5.7,14.8,12.1,14.8s10.1-8.1,12.1-14.8c12.6-42.3,35.3-81.9,65.8-114.6
				c35.7-39.9,81.6-69.1,132.8-84.3c6.8-2,14.8-5.7,14.8-12.1c0-6.3-8-10.1-14.8-12.1c-40.2-12-78.1-33.2-109.7-61.3
				c-42.3-36.3-73.1-83.6-88.9-136.8C764.4,28.1,760.7,20.1,754.4,20.1z"/>
		</g>
	</g>
	<g>
		<g>
			<g>
				<path class="st0" d="M10,1403.7h64.2v122.1h87.8v44.9H10V1403.7z"/>
			</g>
			<g>
				<path class="st0" d="M722.7,1403.7h159.1v46.3h-109v23h83.6v27.7h-83.6v23.7h111.5v46.3H722.7V1403.7z"/>
			</g>
			<g>
				<path class="st0" d="M177.5,1403.7H241v167h-63.5V1403.7z"/>
			</g>
			<g>
				<path class="st0" d="M255.7,1403.7h74.9l51.8,113.7h0.3l50.8-113.7h64.2l-81.2,167h-79.7L255.7,1403.7z"/>
			</g>
			<g>
				<path class="st0" d="M511,1403.7h104.8c66.5,0,86.8,20.1,86.8,50.5c0,16.8-7.1,33.3-31.5,39.8v0.5c27.2,5.6,30.7,23.6,30.7,40.9
					v35.3h-63.2v-37.1c0-14.2-5.8-20.3-21.8-20.3h-42.4v57.4H511V1403.7z M616.6,1488.1c19,0,25.9-9.4,25.9-19.9
					s-6.9-19.9-28.9-19.9h-39.1v39.8H616.6z"/>
			</g>
		</g>
		<g>
			<g>
				<g>
					<path class="st0" d="M165.2,1286.6H89.4L74,1320.8H10l83-167h79.4l83,167h-74.9L165.2,1286.6z M155.3,1264.4l-27.5-61.6H127
						l-27.6,61.6H155.3z"/>
				</g>
				<g>
					<path class="st0" d="M253.2,1236.5c0-47,34.5-85.8,111.9-85.8c77.2,0,111.7,38.8,111.7,85.8c0,48.2-32,87.3-111.7,87.3
						C287.4,1323.9,253.2,1287.3,253.2,1236.5z M410,1236.8c0-23.6-14.5-41.4-44.9-41.4s-45.2,17.8-45.2,41.4
						c0,26.1,14.5,42.4,45.2,42.4C396.3,1279.2,410,1261.9,410,1236.8z"/>
				</g>
			</g>
			<g>
				<g>
					<path class="st0" d="M695.6,1286.6h-75.8l-15.4,34.2h-64l83-167h79.4l83,167H711L695.6,1286.6z M685.7,1264.4l-27.5-61.6h-0.8
						l-27.6,61.6H685.7z"/>
				</g>
				<g>
					<path class="st0" d="M798.3,1153.8h104.8c66.5,0,86.8,20.1,86.8,50.5c0,16.8-7.1,33.3-31.5,39.8v0.5
						c27.2,5.6,30.7,23.6,30.7,40.9v35.3H926v-37.1c0-14.2-5.8-20.3-21.8-20.3h-42.4v57.4h-63.5V1153.8z M903.9,1238.2
						c19,0,25.9-9.4,25.9-19.9s-6.9-19.9-28.9-19.9h-39.1v39.8H903.9z"/>
				</g>
			</g>
		</g>
	</g>
</g>
</svg>
