<?xml version="1.0" encoding="utf-8"?>
<!-- Generator: Adobe Illustrator 25.2.1, SVG Export Plug-In . SVG Version: 6.00 Build 0)  -->
<svg version="1.1" id="Camada_1" xmlns="http://www.w3.org/2000/svg" xmlns:xlink="http://www.w3.org/1999/xlink" x="0px" y="0px"
	 viewBox="0 0 1000 436" style="enable-background:new 0 0 1000 436;" xml:space="preserve">
<style type="text/css">
	.st0{fill:#FFFFFF;}
</style>
<g>
	<path class="st0" d="M906.9,366.8c-24.3,0-44.1-19.8-44.1-44.1c0-4-3.3-7.3-7.3-7.3h-2.4c-4,0-7.3,3.3-7.3,7.3
		c0,24.3-19.8,44.1-44.1,44.1c-4,0-7.3,3.3-7.3,7.3v53.8c0,4,3.3,7.3,7.3,7.3l1.3-0.1c0.6-0.1,14.6-2,28.6-9.2
		c8.6-4.4,15.5-9.9,20.5-16.4c0.8-1,1.5-2,2.2-3.1c0.7,1.1,1.4,2.1,2.2,3.1c5,6.4,11.9,11.9,20.5,16.4c14.1,7.2,28,9.1,28.6,9.2
		l0.7,0.1l0.6,0c4,0,7.3-3.3,7.3-7.3v-53.8C914.2,370.1,910.9,366.8,906.9,366.8z M911,427.9c0,2.3-1.8,4.1-4.1,4.1h-0.3l-0.6-0.1
		c-0.6-0.1-14-1.9-27.6-8.9c-8.2-4.2-14.7-9.4-19.4-15.5c-1.2-1.6-2.4-3.3-3.4-5l-1.4-2.4l-1.4,2.4c-1,1.7-2.1,3.4-3.4,5
		c-4.7,6.1-11.3,11.3-19.4,15.5c-13.6,7-27,8.8-27.6,8.9L802,432l-0.3,0c-2.3,0-4.1-1.8-4.1-4.1v-53.8c0-2.3,1.8-4.1,4.1-4.1
		c26.1,0,47.3-21.2,47.3-47.3c0-2.3,1.8-4.1,4.1-4.1h2.4c2.3,0,4.1,1.8,4.1,4.1c0,26.1,21.2,47.3,47.3,47.3c2.3,0,4.1,1.8,4.1,4.1
		V427.9z"/>
	<path class="st0" d="M67.1,119.7h53.1V66.5c0-36.7-29.9-66.6-66.6-66.6H0.5v53.1C0.5,89.8,30.4,119.7,67.1,119.7z M3.7,3.1h50
		c35,0,63.4,28.5,63.4,63.4v50h-50c-35,0-63.4-28.5-63.4-63.4V3.1z"/>
	<path class="st0" d="M404.9,158.8c-3.8,12.9-11.1,24.5-21.1,33.6l-0.2,0.2c-0.1,0.1-0.1,0.1-0.1,0.1c-8.5,8-18.8,13.9-29.8,17.2
		c-6.2,1.8-7.1,5.5-7.1,7.5c0,2,0.9,5.6,7.1,7.4c13.2,3.9,25.1,11.5,34.3,21.8c7.8,8.4,13.7,18.6,16.9,29.5c1.8,6.2,5.5,7.1,7.4,7.1
		c2,0,5.6-0.9,7.5-7.1c3.2-10.9,9.1-21.1,17-29.6c9.2-10.3,21.1-17.9,34.3-21.8l0.1,0c3.2-1,6.6-1,9.8,0l0.2,0.1
		c13.2,3.9,25.1,11.5,34.3,21.8c7.8,8.4,13.7,18.6,16.9,29.5c1.9,6.2,5.5,7.1,7.5,7.1c2,0,5.6-0.9,7.4-7.1
		c3.3-10.9,9.1-21.1,17-29.6c9.2-10.3,21.1-17.9,34.3-21.8c6.2-1.8,7.1-5.5,7.1-7.5c0-2-0.9-5.6-7.1-7.4
		c-10.4-3.1-20.2-8.6-28.3-15.8c-10.9-9.4-18.9-21.6-23-35.3c-1.8-6.2-5.5-7.1-7.4-7.1c-2,0-5.6,0.9-7.5,7.1
		c-3.8,12.9-11.1,24.5-21.2,33.7l-0.1,0.1c-0.1,0.1-0.1,0.1-0.1,0.1c-8.5,8-18.8,13.9-29.8,17.2l-0.1,0c-3.2,1-6.6,1-9.8,0l-0.2-0.1
		c-10.4-3.1-20.1-8.6-28.3-15.8c-10.9-9.4-18.9-21.6-23-35.3c-1.8-6.2-5.5-7.1-7.5-7.1C410.4,151.7,406.8,152.6,404.9,158.8z
		 M412.4,154.9c2,0,3.4,1.6,4.4,4.9c4.3,14.3,12.5,27,23.9,36.8c8.5,7.6,18.7,13.3,29.5,16.5l0.2,0.1c3.8,1.2,7.8,1.2,11.7,0
		c11.5-3.4,22.3-9.6,31.1-18l0.3-0.3c10.4-9.5,18-21.6,22-35.1c1-3.2,2.5-4.9,4.4-4.9c2,0,3.4,1.6,4.4,4.9
		c4.3,14.3,12.6,27,23.9,36.8c8.5,7.6,18.7,13.3,29.5,16.5c2.2,0.7,4.9,2,4.9,4.4c0,2-1.6,3.4-4.9,4.4c-13.7,4.1-26.1,12-35.7,22.7
		c-8.2,8.8-14.3,19.4-17.7,30.8c-1,3.2-2.4,4.9-4.4,4.9c-2,0-3.4-1.6-4.4-4.9c-3.4-11.4-9.5-22-17.6-30.7
		c-9.6-10.8-22-18.6-35.8-22.7l-0.2-0.1c-1.9-0.6-3.8-0.9-5.8-0.9c-2,0-3.9,0.3-5.8,0.9l-0.1,0c-13.7,4.1-26.1,12-35.7,22.7
		c-8.2,8.8-14.3,19.4-17.7,30.8c-1,3.2-2.4,4.9-4.4,4.9c-2.4,0-3.7-2.6-4.4-4.9c-3.4-11.4-9.5-22-17.6-30.7
		c-9.6-10.8-22-18.6-35.8-22.7c-2.2-0.7-4.9-2-4.9-4.4c0-2,1.6-3.4,4.9-4.4c11.5-3.4,22.3-9.6,31.1-18l0.4-0.4
		c10.3-9.5,17.9-21.6,21.9-35C408.6,157.5,409.9,154.9,412.4,154.9z"/>
	<path class="st0" d="M129.4,315.8l-0.7,0l0,0c-0.4,0-0.9,0-1.3,0c-26.3,0.8-49.4,16.4-59.9,40.2c-10.6-23.9-33.9-39.6-60.3-40.2
		c-1.5,0-4.6-0.1-6.1,2.9c-0.4,0.8-0.5,1.6-0.5,2.4V369c0,0.2,0,0.3,0,0.4c0.4,17.5,7.4,33.9,19.9,46.2
		C33,428,49.7,434.8,67.4,434.8c17.7,0,34.3-6.8,46.9-19.2c12.5-12.3,19.5-28.7,19.9-46.2c0-0.1,0-0.3,0-0.4v-48.1
		C134.2,318.1,132.1,315.9,129.4,315.8z M131.1,369c0,0.1,0,0.1,0,0.2l0,0.1c-0.3,16.7-7.1,32.3-19,44c-12,11.8-27.9,18.3-44.7,18.3
		s-32.7-6.5-44.7-18.3C10.8,401.6,4,386,3.7,369.3l0-0.1c0-0.1,0-0.1,0-0.2l0-48c0-0.3,0-0.6,0.2-0.9c0.4-0.9,1.2-1.1,2.7-1.1
		c0.2,0,0.3,0,0.5,0c26.4,0.6,49.6,17,58.9,41.7l1.5,3.9l1.5-3.9c9.3-24.6,32.3-41,58.5-41.7c0.8,0,1.7,0,1.8,0l0,0
		c1,0,1.8,0.8,1.8,1.9V369z"/>
	<path class="st0" d="M58,161.3L2.1,273.8h43.1l10.4-23.1h51.1l10.4,23.1h50.4l-55.9-112.5H58z M62.3,235.8l18.6-41.5h0.5l18.5,41.5
		H62.3z"/>
	<path class="st0" d="M165.8,217c0,34.2,23.1,58.8,75.4,58.8c53.7,0,75.2-26.3,75.2-58.8c0-31.6-23.2-57.8-75.2-57.8
		C189.1,159.3,165.8,185.4,165.8,217z M271.5,217.2c0,16.9-9.2,28.5-30.3,28.5c-20.7,0-30.4-10.9-30.4-28.5
		c0-15.9,9.9-27.9,30.4-27.9S271.5,201.3,271.5,217.2z"/>
	<polygon class="st0" points="267.1,84.8 192,84.8 192,68.9 248.3,68.9 248.3,50.2 192,50.2 192,34.8 265.4,34.8 265.4,3.6 
		158.2,3.6 158.2,116 267.1,116 	"/>
	<path class="st0" d="M289.8,63.1c8.9,4.6,25.1,6.7,38.3,7.5c11.6,0.9,26.2,1.5,32,2.7c5.3,1.2,7.5,4.7,7.5,8.5
		c0,5.8-3.6,10.9-26.3,10.9c-21.7,0-24.9-6.5-24.9-14.5h-39.7c0,15.2,5.8,39.8,65.8,39.8c59.5,0,68.9-21.4,68.9-39.8
		c0-11.6-6.2-19.2-16.9-23.7c-8.9-3.8-21.5-5.1-37.8-6.3c-12.5-1-26.7-1.5-31.8-3.2c-3.9-1.2-5.8-4.5-5.8-7.8
		c0-6.2,7-10.4,24.8-10.4c18.1,0,23.9,5.1,23.9,13.5h38.6c0-20.3-9.4-38.8-63.9-38.8c-46,0-66.5,17.4-66.5,39
		C276,51.8,281.1,58.7,289.8,63.1z"/>
	<path class="st0" d="M492.3,118.1c50.1,0,67.2-24.4,67.2-47.2c0-0.3,0-0.9-0.2-2.1h-36.2v0c0,11.1-9.7,19.1-27.9,19.1
		c-0.3,0-1.7,0-2.1,0c-20.7,0-30.4-10.9-30.4-28.5c0-15.9,9.9-27.9,30.4-27.9c0.3,0,1.6,0,1.9,0c19,0,27.7,9.9,27.7,19.5H559
		c0.2-1,0.2-2,0.2-2.7c0-19.8-15.7-46.8-67-46.8c-48.4,0-72.3,25-72.3,58.5C419.9,89,437.5,118.1,492.3,118.1z"/>
	<path class="st0" d="M642.8,118.1c53.7,0,75.2-26.3,75.2-58.8c0-31.6-23.2-57.8-75.2-57.8c-52.1,0-75.4,26.2-75.4,57.8
		C567.4,93.5,590.5,118.1,642.8,118.1z M642.8,31.6c20.5,0,30.3,12,30.3,27.9c0,16.9-9.2,28.5-30.3,28.5
		c-20.7,0-30.4-10.9-30.4-28.5C612.3,43.6,622.3,31.6,642.8,31.6z"/>
	<path class="st0" d="M944.6,3.6h-53.5L835.2,116h43.1L888.7,93h51.1l10.4,23.1h50.4L944.6,3.6z M895.5,78.1L914,36.6h0.5l18.5,41.5
		H895.5z"/>
	<polygon class="st0" points="831.3,85.8 772.2,85.8 772.2,3.6 728.9,3.6 728.9,116 831.3,116 	"/>
	<polygon class="st0" points="212.6,319.1 169.4,319.1 169.4,431.5 271.8,431.5 271.8,401.3 212.6,401.3 	"/>
	<polygon class="st0" points="683.1,384.4 739.4,384.4 739.4,365.7 683.1,365.7 683.1,350.3 756.5,350.3 756.5,319.1 649.3,319.1 
		649.3,431.5 758.2,431.5 758.2,400.3 683.1,400.3 	"/>
	<rect x="282.2" y="319.1" class="st0" width="42.7" height="112.5"/>
	<polygon class="st0" points="420.3,395.7 420.1,395.7 385.3,319.1 334.8,319.1 389.4,431.5 443,431.5 497.7,319.1 454.5,319.1 	"/>
	<path class="st0" d="M635.8,353.1c0-20.5-13.7-34-58.5-34h-70.6v112.5h42.7v-38.6h28.5c10.8,0,14.7,4.1,14.7,13.7v25h42.6v-23.8
		c0-11.6-2.4-23.8-20.7-27.5v-0.3C631.1,375.5,635.8,364.4,635.8,353.1z M577.9,375.9h-28.4v-26.8h26.3c14.9,0,19.5,6.3,19.5,13.4
		C595.3,369.6,590.7,375.9,577.9,375.9z"/>
	<path class="st0" d="M676.9,161.3L621,273.8h43.1l10.4-23.1h51.1l10.4,23.1h50.4l-55.9-112.5H676.9z M681.2,235.8l18.6-41.5h0.5
		l18.5,41.5H681.2z"/>
	<path class="st0" d="M923.7,195.3c0-20.5-13.7-34-58.5-34h-70.6v112.5h42.7v-38.6h28.5c10.8,0,14.7,4.1,14.7,13.7v25h42.6V250
		c0-11.6-2.4-23.8-20.7-27.5v-0.3C918.9,217.7,923.7,206.6,923.7,195.3z M865.8,218.2h-28.4v-26.8h26.3c14.9,0,19.5,6.3,19.5,13.4
		C883.2,211.9,878.6,218.2,865.8,218.2z"/>
</g>
</svg>
