<?xml version="1.0" encoding="utf-8"?>
<!-- Generator: Adobe Illustrator 25.2.1, SVG Export Plug-In . SVG Version: 6.00 Build 0)  -->
<svg version="1.1" id="Camada_1" xmlns="http://www.w3.org/2000/svg" xmlns:xlink="http://www.w3.org/1999/xlink" x="0px" y="0px"
	 viewBox="0 0 1000 1700" style="enable-background:new 0 0 1000 1700;" xml:space="preserve">
<style type="text/css">
	.st0{fill:#FFFFFF;}
</style>
<g>
	<g>
		<g>
			<path class="st0" d="M398.6,1225.1l-1.9,0l-2.5-0.3c-2.1-0.3-51.6-7-101.5-32.7c-30.4-15.6-54.8-35.1-72.5-57.9
				c-2.9-3.7-5.6-7.5-8.2-11.5c-2.6,3.9-5.3,7.7-8.2,11.5c-17.8,22.8-42.2,42.3-72.5,57.9c-49.8,25.6-99.4,32.4-101.4,32.7l-4.4,0.4
				c-14,0-25.4-11.4-25.4-25.4v-191c0-14,11.4-25.4,25.4-25.4c86.5,0,157-70.4,157-157c0-14,11.4-25.4,25.4-25.4h8.5
				c14,0,25.4,11.4,25.4,25.4c0,86.5,70.4,157,157,157c14,0,25.4,11.4,25.4,25.4v191C424,1213.7,412.6,1225.1,398.6,1225.1z
				 M397.7,1214.5h0.9c8.2,0,14.9-6.7,14.9-14.9v-191c0-8.2-6.7-14.9-14.9-14.9c-92.4,0-167.5-75.1-167.5-167.5
				c0-8.2-6.7-14.9-14.9-14.9h-8.5c-8.2,0-14.9,6.7-14.9,14.9c0,92.4-75.1,167.5-167.5,167.5c-8.2,0-14.9,6.7-14.9,14.9v191
				c0,8.2,6.7,14.9,14.9,14.9l1,0l2.1-0.3c2-0.3,49.8-6.8,98-31.6c29-14.9,52.2-33.5,69-55c4.4-5.6,8.4-11.6,11.9-17.7l4.6-7.9
				l4.6,7.9c3.5,6.1,7.5,12,11.9,17.7c16.8,21.6,40.1,40.1,69,55c48.2,24.8,96,31.3,98,31.6L397.7,1214.5z"/>
		</g>
		<g>
			<path class="st0" d="M424.1,701.6H235.9C105.8,701.6,0,595.8,0,465.7V277.5h188.2c130.1,0,235.9,105.8,235.9,235.9V701.6z
				 M10.5,288.1v177.6c0,124.3,101.1,225.4,225.4,225.4h177.7V513.5c0-124.3-101.1-225.4-225.4-225.4H10.5z"/>
		</g>
		<g>
			<path class="st0" d="M756.9,1225.1c-63,0-122.4-24.3-167.2-68.5c-44.5-43.8-69.7-102.3-71-164.6c0-0.5-0.1-1-0.1-1.6V819.5
				c-0.1-2.7,0.5-5.6,1.7-8.2c5.1-10.6,16.1-10.3,21.3-10.2c94.5,2.2,177.6,58.3,215.2,144c37.4-85.2,120-141.3,214-144
				c1.8,0,3.6,0,5,0l0,0l2.2,0.1c9.6,0.3,17.1,8,17.1,17.5v171.8c0,0.5,0,1.1-0.1,1.6c-1.3,62.3-26.5,120.8-71,164.6
				C879.3,1200.7,819.9,1225.1,756.9,1225.1z M539.6,811.5c-4.6,0-8,0.6-9.8,4.3c-0.5,1-0.7,2.2-0.7,3.4l0,171.2c0,0.3,0,0.5,0,0.7
				l0,0.4c1.2,59.7,25.3,115.6,67.9,157.5c42.9,42.2,99.6,65.5,159.8,65.5c60.2,0,117-23.3,159.8-65.5
				c42.5-41.9,66.6-97.9,67.9-157.5l0-0.4c0-0.3,0-0.5,0-0.8V818.5c0-3.8-3-6.9-6.8-7l-0.1,0c-0.5,0-3.5-0.1-6.6,0
				c-94,2.7-176.2,61.3-209.4,149.2l-4.9,13.1l-4.9-13.1c-33.3-88.5-116-147.1-210.5-149.3C540.8,811.5,540.2,811.5,539.6,811.5z"/>
		</g>
		<g>
			<path class="st0" d="M756.9,732.6c-7.2,0-20.2-3.4-27-26c-12.1-40.5-33.8-78.3-62.8-109.4c-34.4-38.4-78.4-66.4-127.3-81
				c-22.6-6.7-26-19.8-26-27c0-7.2,3.4-20.2,26-27c41-12.2,79.3-34.3,110.6-63.9c0.2-0.2,0.3-0.3,0.5-0.5l0.1-0.1
				c0.2-0.2,0.4-0.4,0.6-0.6c36.9-33.9,64-77,78.2-124.7c6.7-22.6,19.8-26,27-26c7.2,0,20.2,3.4,27,26c15.2,50.9,44.6,96.2,85.2,131
				c30.3,27,66.6,47.3,105,58.7h0c22.6,6.7,26,19.8,26,27s-3.4,20.2-26,27c-48.9,14.6-92.9,42.5-127.1,80.8
				c-29.2,31.3-50.9,69.2-63,109.7C777.2,729.2,764.1,732.6,756.9,732.6z M756.8,257.1c-7.6,0-13.2,6.2-16.9,18.4
				c-14.8,49.5-42.8,94.3-81.1,129.5l-1.1,1.1c-32.5,30.7-72.2,53.6-114.8,66.3c-12.2,3.6-18.4,9.3-18.4,16.9
				c0,7.6,6.2,13.2,18.4,16.9c50.8,15.1,96.5,44.2,132.1,84c30,32.2,52.5,71.5,65.1,113.5c3.6,12.2,9.3,18.4,16.9,18.4
				c7.6,0,13.2-6.2,16.9-18.4c12.5-42,35.1-81.4,65.3-113.8c35.5-39.6,81.1-68.6,131.9-83.8c12.2-3.6,18.4-9.3,18.4-16.9
				s-6.2-13.2-18.4-16.9c-39.9-11.9-77.5-32.9-108.9-60.9c-42-36.1-72.6-83.1-88.4-135.9C770.1,263.3,764.4,257.1,756.8,257.1z"/>
		</g>
	</g>
	<g>
		<g>
			<g>
				<path class="st0" d="M2.5,2.8h126.6v36.9H42.4v18.3h66.5v22H42.4v18.9h88.7v36.9H2.5V2.8z"/>
			</g>
			<g>
				<path class="st0" d="M142.4,91.1h46.9c0,9.5,3.8,17.2,29.5,17.2c26.9,0,31.1-6.1,31.1-12.9c0-4.4-2.6-8.6-8.9-10
					c-6.9-1.4-24-2.2-37.8-3.2c-15.5-1-34.7-3.4-45.2-8.9c-10.3-5.2-16.4-13.4-16.4-26.7c0-25.4,24.2-46,78.5-46
					c64.4,0,75.5,21.8,75.5,45.8H250c0-9.9-6.8-15.9-28.2-15.9c-21,0-29.3,5-29.3,12.3c0,3.8,2.2,7.8,6.9,9.2
					c6.1,2,22.8,2.6,37.6,3.8c19.2,1.4,34.1,3,44.6,7.5c12.7,5.2,20,14.2,20,28c0,21.8-11.1,47-81.4,47
					C149.3,138.1,142.4,109,142.4,91.1z"/>
			</g>
			<g>
				<path class="st0" d="M476.3,79.9h-42.8v0c0,13.1-11.5,22.6-32.9,22.6c-0.4,0-2,0-2.4,0c-24.4,0-35.9-12.9-35.9-33.7
					c0-18.8,11.7-32.9,35.9-32.9c0.4,0,1.9,0,2.2,0c22.4,0,32.7,11.7,32.7,23l0,0h42.8c0.2-1.2,0.2-2.4,0.2-3.2
					c0-23.4-18.6-55.3-79.1-55.3c-57.1,0-85.4,29.5-85.4,69c0,34.3,20.8,68.6,85.6,68.6c59.2,0,79.3-28.9,79.3-55.7
					C476.6,82,476.6,81.3,476.3,79.9z"/>
			</g>
			<g>
				<path class="st0" d="M485.8,68.6c0-37.3,27.5-68.2,89-68.2c61.4,0,88.8,30.9,88.8,68.2c0,38.4-25.4,69.4-88.8,69.4
					C513.1,138.1,485.8,109,485.8,68.6z M610.6,68.8c0-18.8-11.5-32.9-35.7-32.9s-35.9,14.1-35.9,32.9c0,20.8,11.5,33.7,35.9,33.7
					C599.7,102.6,610.6,88.8,610.6,68.8z"/>
			</g>
			<g>
				<path class="st0" d="M925.6,108.4h-60.3L853,135.7h-50.9l66-132.8h63.2l66,132.8h-59.6L925.6,108.4z M917.7,90.8l-21.9-49h-0.6
					l-21.9,49H917.7z"/>
			</g>
			<g>
				<path class="st0" d="M676.6,2.8h51.1V100h69.9v35.7H676.6V2.8z"/>
			</g>
		</g>
		<g>
			<g>
				<g>
					<path class="st0" d="M2.5,1567.2h51.1v97.1h69.9v35.7H2.5V1567.2z"/>
				</g>
				<g>
					<path class="st0" d="M569.4,1567.2H696v36.9h-86.7v18.3h66.5v22h-66.5v18.9H698v36.9H569.4V1567.2z"/>
				</g>
				<g>
					<path class="st0" d="M135.8,1567.2h50.5V1700h-50.5V1567.2z"/>
				</g>
				<g>
					<path class="st0" d="M197.9,1567.2h59.6l41.2,90.4h0.2l40.4-90.4h51.1L325.7,1700h-63.4L197.9,1567.2z"/>
				</g>
				<g>
					<path class="st0" d="M401,1567.2h83.4c52.9,0,69,15.9,69,40.2c0,13.3-5.7,26.4-25,31.7v0.4c21.6,4.4,24.4,18.8,24.4,32.5v28.1
						h-50.3v-29.5c0-11.3-4.6-16.2-17.4-16.2h-33.7v45.6H401V1567.2z M485,1634.4c15.1,0,20.6-7.5,20.6-15.8c0-8.4-5.5-15.8-23-15.8
						h-31.1v31.6H485z"/>
				</g>
			</g>
			<g>
				<g>
					<g>
						<path class="st0" d="M126,1472.5H65.6l-12.2,27.2H2.5l66-132.8h63.2l66,132.8h-59.6L126,1472.5z M118.1,1454.9l-21.9-49h-0.6
							l-21.9,49H118.1z"/>
					</g>
					<g>
						<path class="st0" d="M195.9,1432.7c0-37.3,27.5-68.2,89-68.2c61.4,0,88.8,30.9,88.8,68.2c0,38.4-25.4,69.4-88.8,69.4
							C223.2,1502.2,195.9,1473.1,195.9,1432.7z M320.7,1432.9c0-18.8-11.5-32.9-35.7-32.9s-35.9,14.1-35.9,32.9
							c0,20.8,11.5,33.7,35.9,33.7C309.8,1466.7,320.7,1452.9,320.7,1432.9z"/>
					</g>
				</g>
				<g>
					<g>
						<path class="st0" d="M547.8,1472.5h-60.3l-12.2,27.2h-50.9l66-132.8h63.2l66,132.8h-59.6L547.8,1472.5z M540,1454.9l-21.9-49
							h-0.6l-21.9,49H540z"/>
					</g>
					<g>
						<path class="st0" d="M629.5,1366.9h83.4c52.9,0,69,15.9,69,40.2c0,13.3-5.7,26.4-25,31.7v0.4c21.6,4.4,24.4,18.8,24.4,32.5
							v28.1H731v-29.5c0-11.3-4.6-16.2-17.4-16.2H680v45.6h-50.5V1366.9z M713.5,1434.1c15.1,0,20.6-7.5,20.6-15.8
							c0-8.4-5.5-15.8-23-15.8H680v31.6H713.5z"/>
					</g>
				</g>
			</g>
		</g>
	</g>
</g>
</svg>
