<?xml version="1.0" encoding="utf-8"?>
<!-- Generator: Adobe Illustrator 25.2.1, SVG Export Plug-In . SVG Version: 6.00 Build 0)  -->
<svg version="1.1" id="Camada_1" xmlns="http://www.w3.org/2000/svg" xmlns:xlink="http://www.w3.org/1999/xlink" x="0px" y="0px"
	 viewBox="0 0 1000 321" style="enable-background:new 0 0 1000 321;" xml:space="preserve">
<style type="text/css">
	.st0{fill:#FFFFFF;}
</style>
<g>
	<g>
		<g>
			<path class="st0" d="M131.4,320.9l-1.6-0.1c-0.7-0.1-17-2.3-33.4-10.8c-10.1-5.2-18.1-11.6-24.1-19.2c-0.5-0.6-1-1.2-1.4-1.9
				c-0.5,0.6-0.9,1.3-1.4,1.9c-5.9,7.6-14,14-24.1,19.2C29,318.4,12.7,320.6,12,320.7l-1.6,0.1c-5.4,0-9.8-4.4-9.8-9.8v-62
				c0-5.4,4.4-9.8,9.8-9.8c27.2,0,49.3-22.1,49.3-49.3c0-5.4,4.4-9.8,9.8-9.8h2.8c5.4,0,9.8,4.4,9.8,9.8c0,27.2,22.1,49.3,49.3,49.3
				c5.4,0,9.8,4.4,9.8,9.8v62C141.2,316.5,136.8,320.9,131.4,320.9z M131.2,314.3h0.2c1.8,0,3.2-1.5,3.2-3.2v-62
				c0-1.8-1.5-3.2-3.2-3.2c-30.8,0-55.9-25.1-55.9-55.9c0-1.8-1.5-3.2-3.2-3.2h-2.8c-1.8,0-3.2,1.5-3.2,3.2
				c0,30.8-25.1,55.9-55.9,55.9c-1.8,0-3.2,1.5-3.2,3.2v62c0,1.8,1.5,3.2,3.2,3.2l0.8-0.1c0.6-0.1,15.9-2.2,31.3-10.1
				c9.2-4.7,16.6-10.6,21.9-17.4c1.4-1.8,2.6-3.6,3.7-5.6l2.8-4.9l2.8,4.9c1.1,1.9,2.4,3.8,3.7,5.5c5.3,6.8,12.7,12.7,21.9,17.4
				c15.4,7.9,30.6,10,31.3,10.1L131.2,314.3z"/>
		</g>
		<g>
			<path class="st0" d="M141.2,151.1H78.6c-43.1,0-78.1-35-78.1-78.1V10.3h62.6c43.1,0,78.1,35,78.1,78.1V151.1z M7.1,16.9v56
				c0,39.4,32.1,71.5,71.5,71.5h56v-56c0-39.4-32.1-71.5-71.5-71.5H7.1z"/>
		</g>
		<g>
			<path class="st0" d="M247.6,320.9c-20.8,0-40.5-8.1-55.4-22.7c-14.7-14.5-23.1-33.8-23.5-54.4c0-0.2,0-0.4,0-0.6v-55.4
				c-0.1-1.1,0.2-2.3,0.7-3.4c2.1-4.4,6.5-4.3,8.4-4.2c30.1,0.7,56.7,17.9,69.8,44.5c13-26.4,39.4-43.7,69.4-44.5c0.3,0,0.7,0,1,0
				l0,0l1.4,0c4,0.1,7.1,3.3,7.1,7.3v55.7c0,0.2,0,0.4,0,0.6c-0.4,20.6-8.8,39.9-23.5,54.4C288.1,312.8,268.5,320.9,247.6,320.9z
				 M177.2,186.7c-1.4,0-1.6,0.2-1.8,0.5c-0.1,0.1-0.1,0.3-0.1,0.3l0,55.9c0.4,18.9,8,36.7,21.5,50c13.6,13.4,31.6,20.8,50.7,20.8
				c19.1,0,37.1-7.4,50.7-20.8c13.5-13.3,21.2-31.1,21.5-50l0-0.3l0-55.8c0-0.4-0.3-0.7-0.7-0.7l0,0c-0.2,0-1.1,0-2,0
				c-29.9,0.9-55.9,19.5-66.5,47.4l-3.1,8.2l-3.1-8.2c-10.6-28.1-36.8-46.7-66.9-47.4C177.5,186.7,177.3,186.7,177.2,186.7z"/>
		</g>
		<g>
			<path class="st0" d="M247.6,161.1c-2.8,0-7.8-1.2-10.3-9.6c-3.9-12.9-10.8-25-20-34.9c-11-12.3-25-21.2-40.6-25.8
				c-8.3-2.5-9.6-7.5-9.6-10.3s1.2-7.8,9.6-10.3C189.8,66.4,202,59.4,212,50l0.4-0.4c11.8-10.8,20.4-24.6,24.9-39.8
				c2.5-8.3,7.5-9.6,10.3-9.6s7.8,1.2,10.3,9.6c4.8,16.2,14.2,30.6,27.2,41.7c9.7,8.6,21.2,15.1,33.5,18.7l0,0
				c8.3,2.5,9.6,7.5,9.6,10.3c0,2.8-1.2,7.8-9.5,10.3c-15.6,4.7-29.6,13.6-40.5,25.8c-9.3,10-16.2,22.1-20.1,35
				C255.4,159.9,250.4,161.1,247.6,161.1z M247.6,6.8c-2.1,0-3.3,2.6-4,4.8c-4.9,16.3-14.1,31.1-26.8,42.7l-0.3,0.3
				c-10.8,10.2-23.9,17.7-37.9,21.9c-2.2,0.7-4.9,1.9-4.9,4c0,2.1,2.6,3.3,4.8,4c16.8,5,31.8,14.6,43.6,27.7
				c9.9,10.6,17.3,23.6,21.5,37.4c0.7,2.2,1.9,4.8,4,4.8c2.1,0,3.3-2.6,4-4.8c4.1-13.9,11.6-26.8,21.5-37.5
				c11.7-13.1,26.7-22.6,43.5-27.6c2.2-0.7,4.8-1.9,4.8-4c0-2.1-2.6-3.3-4.8-4l0,0c-13.2-3.9-25.6-10.9-35.9-20.1
				c-13.8-11.9-23.9-27.4-29.1-44.8C250.9,9.5,249.7,6.8,247.6,6.8z"/>
		</g>
	</g>
	<g>
		<g>
			<g>
				<path class="st0" d="M404.2,5h75.9v22.1h-52V38H468v13.2h-39.9v11.3h53.2v22.1h-77.1V5z"/>
			</g>
			<g>
				<path class="st0" d="M488.1,57.9h28.1c0,5.7,2.3,10.3,17.7,10.3c16.1,0,18.6-3.6,18.6-7.7c0-2.7-1.6-5.1-5.3-6
					c-4.1-0.8-14.4-1.3-22.6-1.9c-9.3-0.6-20.8-2.1-27.1-5.3c-6.2-3.1-9.8-8-9.8-16c0-15.2,14.5-27.6,47.1-27.6
					c38.6,0,45.3,13.1,45.3,27.5h-27.4c0-5.9-4.1-9.6-16.9-9.6c-12.6,0-17.5,3-17.5,7.4c0,2.3,1.3,4.7,4.1,5.5
					c3.6,1.2,13.7,1.6,22.5,2.3c11.5,0.8,20.4,1.8,26.7,4.5c7.6,3.1,12,8.5,12,16.8c0,13.1-6.7,28.2-48.8,28.2
					C492.2,86.1,488.1,68.7,488.1,57.9z"/>
			</g>
			<g>
				<path class="st0" d="M688.2,51.2h-25.6v0c0,7.9-6.9,13.5-19.7,13.5c-0.2,0-1.2,0-1.5,0c-14.6,0-21.5-7.7-21.5-20.2
					c0-11.3,7-19.7,21.5-19.7c0.2,0,1.1,0,1.3,0c13.4,0,19.6,7,19.6,13.8l0,0H688c0.1-0.7,0.1-1.5,0.1-1.9c0-14-11.1-33.2-47.4-33.2
					c-34.2,0-51.2,17.7-51.2,41.4c0,20.6,12.5,41.1,51.3,41.1c35.5,0,47.6-17.3,47.6-33.4C688.3,52.4,688.3,52,688.2,51.2z"/>
			</g>
			<g>
				<path class="st0" d="M693.9,44.5c0-22.4,16.5-40.9,53.4-40.9c36.8,0,53.2,18.5,53.2,40.9c0,23-15.2,41.6-53.2,41.6
					C710.2,86.1,693.9,68.7,693.9,44.5z M768.7,44.6c0-11.3-6.9-19.7-21.4-19.7c-14.5,0-21.5,8.5-21.5,19.7
					c0,12.5,6.9,20.2,21.5,20.2C762.1,64.8,768.7,56.6,768.7,44.6z"/>
			</g>
			<g>
				<path class="st0" d="M957.5,68.3h-36.2L914,84.6h-30.5L923.1,5h37.9l39.6,79.6h-35.7L957.5,68.3z M952.8,57.7l-13.1-29.4h-0.4
					l-13.1,29.4H952.8z"/>
			</g>
			<g>
				<path class="st0" d="M808.2,5h30.6v58.2h41.9v21.4h-72.5V5z"/>
			</g>
		</g>
		<g>
			<g>
				<path class="st0" d="M404.2,238h30.6v58.2h41.9v21.4h-72.5V238z"/>
			</g>
			<g>
				<path class="st0" d="M744,238h75.9V260h-52V271h39.9v13.2h-39.9v11.3h53.2v22.1H744V238z"/>
			</g>
			<g>
				<path class="st0" d="M484.1,238h30.3v79.6h-30.3V238z"/>
			</g>
			<g>
				<path class="st0" d="M521.3,238H557l24.7,54.2h0.1L606,238h30.6l-38.7,79.6h-38L521.3,238z"/>
			</g>
			<g>
				<path class="st0" d="M643.1,238h50c31.7,0,41.4,9.6,41.4,24.1c0,8-3.4,15.9-15,19v0.2c12.9,2.7,14.6,11.3,14.6,19.5v16.8h-30.1
					v-17.7c0-6.8-2.8-9.7-10.4-9.7h-20.2v27.3h-30.2V238z M693.4,278.2c9.1,0,12.3-4.5,12.3-9.5c0-5-3.3-9.5-13.8-9.5h-18.6v19
					H693.4z"/>
			</g>
		</g>
		<g>
			<g>
				<g>
					<path class="st0" d="M478.2,185.5H442l-7.3,16.3h-30.5l39.6-79.6h37.9l39.6,79.6h-35.7L478.2,185.5z M473.5,174.9l-13.1-29.4
						H460l-13.1,29.4H473.5z"/>
				</g>
				<g>
					<path class="st0" d="M520.1,161.7c0-22.4,16.5-40.9,53.4-40.9c36.8,0,53.2,18.5,53.2,40.9c0,23-15.2,41.6-53.2,41.6
						C536.5,203.3,520.1,185.9,520.1,161.7z M594.9,161.8c0-11.3-6.9-19.7-21.4-19.7c-14.5,0-21.5,8.5-21.5,19.7
						c0,12.5,6.9,20.2,21.5,20.2C588.4,182,594.9,173.8,594.9,161.8z"/>
				</g>
			</g>
			<g>
				<g>
					<path class="st0" d="M731,185.5h-36.2l-7.3,16.3h-30.5l39.6-79.6h37.9l39.6,79.6h-35.7L731,185.5z M726.3,174.9l-13.1-29.4
						h-0.4l-13.1,29.4H726.3z"/>
				</g>
				<g>
					<path class="st0" d="M780,122.2h50c31.7,0,41.4,9.6,41.4,24.1c0,8-3.4,15.9-15,19v0.2c12.9,2.7,14.6,11.3,14.6,19.5v16.8h-30.1
						v-17.7c0-6.8-2.8-9.7-10.4-9.7h-20.2v27.3H780V122.2z M830.3,162.5c9.1,0,12.3-4.5,12.3-9.5c0-5-3.3-9.5-13.8-9.5h-18.6v19
						H830.3z"/>
				</g>
			</g>
		</g>
	</g>
</g>
</svg>
