<?xml version="1.0" encoding="utf-8"?>
<!-- Generator: Adobe Illustrator 25.2.1, SVG Export Plug-In . SVG Version: 6.00 Build 0)  -->
<svg version="1.1" id="Camada_1" xmlns="http://www.w3.org/2000/svg" xmlns:xlink="http://www.w3.org/1999/xlink" x="0px" y="0px"
	 viewBox="0 0 1000 51" style="enable-background:new 0 0 1000 51;" xml:space="preserve">
<style type="text/css">
	.st0{fill:#FFFFFF;}
</style>
<g>
	<g>
		<path class="st0" d="M997.8,47.4l-0.2,0l-0.3,0c-0.2,0-5.3-0.7-10.4-3.4c-3.1-1.6-5.6-3.6-7.5-6c-0.3-0.4-0.6-0.7-0.8-1.1
			c-0.3,0.4-0.5,0.8-0.8,1.1c-1.8,2.3-4.3,4.4-7.5,6c-5.1,2.6-10.2,3.3-10.4,3.4l-0.5,0c-1.5,0-2.7-1.2-2.7-2.6V25.1
			c0-1.5,1.2-2.6,2.6-2.6c8.9,0,16.1-7.2,16.1-16.1c0-1.5,1.2-2.6,2.6-2.6h0.9c1.5,0,2.6,1.2,2.6,2.6c0,8.9,7.2,16.1,16.1,16.1
			c1.5,0,2.6,1.2,2.6,2.6v19.6C1000.5,46.2,999.3,47.4,997.8,47.4z M997.8,46.2L997.8,46.2c0.9,0,1.6-0.7,1.6-1.5V25.1
			c0-0.8-0.7-1.5-1.5-1.5c-9.5,0-17.3-7.7-17.3-17.3c0-0.8-0.7-1.5-1.5-1.5h-0.9c-0.8,0-1.5,0.7-1.5,1.5c0,9.5-7.7,17.3-17.3,17.3
			c-0.8,0-1.5,0.7-1.5,1.5v19.6c0,0.8,0.7,1.5,1.5,1.5l0.1,0l0.2,0c0.2,0,5.1-0.7,10.1-3.2c3-1.5,5.4-3.4,7.1-5.6
			c0.5-0.6,0.9-1.2,1.2-1.8l0.5-0.9l0.5,0.9c0.4,0.6,0.8,1.2,1.2,1.8c1.7,2.2,4.1,4.1,7.1,5.6c5,2.6,9.9,3.2,10.1,3.2L997.8,46.2z"
			/>
	</g>
	<g>
		<path class="st0" d="M359.4,47.4H340c-13.4,0-24.3-10.9-24.3-24.3V3.7h19.4c13.4,0,24.3,10.9,24.3,24.3V47.4z M316.8,4.9v18.2
			c0,12.8,10.4,23.1,23.1,23.1h18.2V28c0-12.8-10.4-23.1-23.1-23.1H316.8z"/>
	</g>
	<g>
		<path class="st0" d="M694.2,47.4c-6.5,0-12.6-2.5-17.2-7.1c-4.6-4.5-7.2-10.5-7.3-17c0-0.1,0-0.1,0-0.2V5.7c0-0.3,0-0.6,0.2-0.9
			c0.5-1.1,1.7-1.1,2.2-1.1c9.7,0.2,18.2,6,22.1,14.8c3.9-8.7,12.4-14.5,22-14.7c0.2,0,0.4,0,0.5,0l0,0l0.2,0c1,0,1.8,0.8,1.8,1.8
			v17.7c0,0.1,0,0.1,0,0.2c-0.1,6.4-2.7,12.4-7.3,17C706.8,44.9,700.7,47.4,694.2,47.4z M671.9,4.9c-0.5,0-0.8,0.1-1,0.4
			c0,0.1-0.1,0.2-0.1,0.3l0,17.6c0,0,0,0,0,0.1l0,0c0.1,6.1,2.6,11.9,7,16.2c4.4,4.3,10.2,6.7,16.4,6.7s12-2.4,16.4-6.7
			c4.4-4.3,6.8-10,7-16.2l0,0c0,0,0,0,0-0.1V5.6c0-0.4-0.3-0.7-0.7-0.7l0,0c-0.1,0-0.4,0-0.7,0c-9.7,0.3-18.1,6.3-21.5,15.3
			l-0.5,1.4l-0.5-1.4c-3.4-9.1-11.9-15.1-21.6-15.3C672,4.9,671.9,4.9,671.9,4.9z"/>
	</g>
	<g>
		<path class="st0" d="M519.4,50.6c-0.7,0-2.1-0.4-2.8-2.7c-1.2-4.2-3.5-8-6.4-11.2c-3.5-3.9-8.1-6.8-13.1-8.3
			c-2.3-0.7-2.7-2.1-2.7-2.8c0-0.7,0.4-2.1,2.7-2.8c4.2-1.3,8.1-3.5,11.4-6.6c0,0,0,0,0.1-0.1c0,0,0.1-0.1,0.1-0.1
			c3.8-3.5,6.6-7.9,8-12.8c0.7-2.3,2.1-2.7,2.8-2.7c0.7,0,2.1,0.4,2.8,2.7c1.6,5.2,4.6,9.9,8.7,13.5c3.1,2.8,6.8,4.9,10.8,6
			c2.3,0.7,2.7,2.1,2.7,2.8s-0.4,2.1-2.7,2.8c-5,1.5-9.5,4.4-13.1,8.3c-3,3.2-5.2,7.1-6.5,11.3C521.5,50.2,520.1,50.6,519.4,50.6z
			 M508.9,16.5l0.4,0.4l-0.1,0.1c-3.3,3.2-7.4,5.5-11.8,6.8c-1.2,0.4-1.9,0.9-1.9,1.7c0,0.8,0.6,1.3,1.9,1.7
			c5.2,1.6,9.9,4.5,13.6,8.6c3.1,3.3,5.4,7.4,6.7,11.7c0.4,1.2,0.9,1.9,1.7,1.9s1.3-0.6,1.7-1.9c1.3-4.3,3.6-8.4,6.7-11.7
			c3.7-4.1,8.4-7.1,13.6-8.6c1.2-0.4,1.9-0.9,1.9-1.7c0-0.8-0.6-1.3-1.9-1.7c-4.1-1.2-8-3.4-11.2-6.3c-4.3-3.7-7.5-8.6-9.1-14
			c-0.4-1.2-0.9-1.9-1.7-1.9c-0.8,0-1.3,0.6-1.7,1.9c-1.5,5.1-4.4,9.7-8.4,13.3L508.9,16.5z"/>
	</g>
	<g>
		<g>
			<path class="st0" d="M408.2,37.7h-18.6l-3.8,8.4h-15.7l20.4-41H410l20.4,41H412L408.2,37.7z M405.8,32.2L399,17.1h-0.2l-6.8,15.1
				H405.8z"/>
		</g>
		<g>
			<path class="st0" d="M429.8,25.4c0-11.5,8.5-21.1,27.5-21.1c19,0,27.4,9.5,27.4,21.1c0,11.8-7.9,21.5-27.4,21.5
				C438.3,46.8,429.8,37.8,429.8,25.4z M468.4,25.4c0-5.8-3.6-10.2-11-10.2c-7.5,0-11.1,4.4-11.1,10.2c0,6.4,3.6,10.4,11.1,10.4
				C465,35.9,468.4,31.6,468.4,25.4z"/>
		</g>
	</g>
	<g>
		<g>
			<path class="st0" d="M0.5,5h39.1v11.4H12.8v5.6h20.5v6.8H12.8v5.8h27.4v11.4H0.5V5z"/>
		</g>
		<g>
			<path class="st0" d="M43.7,32.3h14.5c0,2.9,1.2,5.3,9.1,5.3c8.3,0,9.6-1.9,9.6-4c0-1.4-0.8-2.7-2.7-3.1c-2.1-0.4-7.4-0.7-11.7-1
				c-4.8-0.3-10.7-1.1-14-2.7c-3.2-1.6-5.1-4.1-5.1-8.3c0-7.9,7.5-14.2,24.3-14.2C87.6,4.3,91,11,91,18.5H76.9
				c0-3.1-2.1-4.9-8.7-4.9c-6.5,0-9,1.6-9,3.8c0,1.2,0.7,2.4,2.1,2.8c1.9,0.6,7,0.8,11.6,1.2c5.9,0.4,10.5,0.9,13.8,2.3
				c3.9,1.6,6.2,4.4,6.2,8.6c0,6.7-3.4,14.5-25.1,14.5C45.8,46.8,43.7,37.8,43.7,32.3z"/>
		</g>
		<g>
			<path class="st0" d="M146.9,28.9h-13.2v0c0,4.1-3.6,7-10.2,7c-0.1,0-0.6,0-0.8,0c-7.5,0-11.1-4-11.1-10.4
				c0-5.8,3.6-10.2,11.1-10.2c0.1,0,0.6,0,0.7,0c6.9,0,10.1,3.6,10.1,7.1l0,0h13.2c0.1-0.4,0.1-0.7,0.1-1c0-7.2-5.7-17.1-24.4-17.1
				C104.7,4.3,96,13.4,96,25.6c0,10.6,6.4,21.2,26.4,21.2c18.3,0,24.5-8.9,24.5-17.2C146.9,29.5,146.9,29.3,146.9,28.9z"/>
		</g>
		<g>
			<path class="st0" d="M149.8,25.4c0-11.5,8.5-21.1,27.5-21.1c19,0,27.4,9.5,27.4,21.1c0,11.8-7.9,21.5-27.4,21.5
				C158.2,46.8,149.8,37.8,149.8,25.4z M188.3,25.4c0-5.8-3.6-10.2-11-10.2s-11.1,4.4-11.1,10.2c0,6.4,3.6,10.4,11.1,10.4
				C185,35.9,188.3,31.6,188.3,25.4z"/>
		</g>
		<g>
			<path class="st0" d="M285.6,37.7H267l-3.8,8.4h-15.7l20.4-41h19.5l20.4,41h-18.4L285.6,37.7z M283.2,32.2l-6.8-15.1h-0.2
				l-6.8,15.1H283.2z"/>
		</g>
		<g>
			<path class="st0" d="M208.7,5h15.8v30h21.6v11h-37.4V5z"/>
		</g>
	</g>
	<g>
		<g>
			<path class="st0" d="M730.8,5h15.8v30h21.6v11h-37.4V5z"/>
		</g>
		<g>
			<path class="st0" d="M905.9,5H945v11.4h-26.8v5.6h20.5v6.8h-20.5v5.8h27.4v11.4h-39.7V5z"/>
		</g>
		<g>
			<path class="st0" d="M772,5h15.6v41H772V5z"/>
		</g>
		<g>
			<path class="st0" d="M791.2,5h18.4L822.3,33h0.1L834.9,5h15.8l-20,41h-19.6L791.2,5z"/>
		</g>
		<g>
			<path class="st0" d="M853.9,5h25.8C896,5,901,10,901,17.5c0,4.1-1.7,8.2-7.7,9.8v0.1c6.7,1.4,7.5,5.8,7.5,10v8.7h-15.5V37
				c0-3.5-1.4-5-5.4-5h-10.4v14.1h-15.6V5z M879.9,25.8c4.7,0,6.4-2.3,6.4-4.9s-1.7-4.9-7.1-4.9h-9.6v9.8H879.9z"/>
		</g>
	</g>
	<g>
		<g>
			<path class="st0" d="M585.6,37.7H567l-3.8,8.4h-15.7l20.4-41h19.5l20.4,41h-18.4L585.6,37.7z M583.2,32.2l-6.8-15.1h-0.2
				l-6.8,15.1H583.2z"/>
		</g>
		<g>
			<path class="st0" d="M610.8,5h25.8c16.3,0,21.3,4.9,21.3,12.4c0,4.1-1.7,8.2-7.7,9.8v0.1c6.7,1.4,7.5,5.8,7.5,10v8.7h-15.5V37
				c0-3.5-1.4-5-5.4-5h-10.4v14.1h-15.6V5z M636.8,25.8c4.7,0,6.4-2.3,6.4-4.9S641.5,16,636,16h-9.6v9.8H636.8z"/>
		</g>
	</g>
</g>
</svg>
